<svg xmlns:xlink="http://www.w3.org/1999/xlink" xmlns="http://www.w3.org/2000/svg" viewBox="0 0 113.663 16.57" width="113.663"  height="16.57" ><g transform="translate(-43 -32)"><path d="M58.009,7a7,7,0,1,1,7,7A7.006,7.006,0,0,1,58.009,7ZM61.2,7A3.806,3.806,0,1,0,65,3.193,3.811,3.811,0,0,0,61.2,7ZM43.218,8.453V2.194A2.653,2.653,0,0,1,43.431.855,1.712,1.712,0,0,1,44.913,0a1.687,1.687,0,0,1,1.459.847,2.436,2.436,0,0,1,.216,1.346V8.016a2.514,2.514,0,0,0,2.555,2.795,2.566,2.566,0,0,0,2.033-.967A3.461,3.461,0,0,0,51.7,7.659V2.194A2.651,2.651,0,0,1,51.911.855,1.712,1.712,0,0,1,53.393,0a1.686,1.686,0,0,1,1.459.847,2.435,2.435,0,0,1,.216,1.346V7.659a5.757,5.757,0,0,1-1.107,4.055,6.02,6.02,0,0,1-4.838,2.27A5.6,5.6,0,0,1,43.218,8.453Zm-21.36,4.689a2.436,2.436,0,0,1-.219-1.351V2.373c0-.94.062-1.229.349-1.627A1.862,1.862,0,0,1,23.632,0h5.436a2.2,2.2,0,0,1,1.206.2,1.538,1.538,0,0,1,0,2.661,2.2,2.2,0,0,1-1.206.2H25.009V5.3h2.238a2.2,2.2,0,0,1,1.206.2,1.537,1.537,0,0,1,0,2.66,2.17,2.17,0,0,1-1.206.2H25.009v3.438a2.651,2.651,0,0,1-.213,1.339,1.7,1.7,0,0,1-2.938.012Zm-5.658.42a4.333,4.333,0,0,1-.632-.733L10.261,6.071v5.721a2.651,2.651,0,0,1-.213,1.339,1.7,1.7,0,0,1-2.938.012,2.436,2.436,0,0,1-.219-1.351V1.717A1.605,1.605,0,0,1,8.567,0,1.583,1.583,0,0,1,9.947.74l5.564,7V2.194A2.648,2.648,0,0,1,15.724.855,1.712,1.712,0,0,1,17.206,0a1.687,1.687,0,0,1,1.459.847,2.434,2.434,0,0,1,.216,1.346V12.07a1.753,1.753,0,0,1-.462,1.4,1.451,1.451,0,0,1-1.153.509A1.482,1.482,0,0,1,16.2,13.562ZM.219,13.143A2.438,2.438,0,0,1,0,11.792v-9.6A2.648,2.648,0,0,1,.213.855,1.712,1.712,0,0,1,1.695,0,1.685,1.685,0,0,1,3.153.848a2.434,2.434,0,0,1,.216,1.346v9.6a2.648,2.648,0,0,1-.213,1.339,1.716,1.716,0,0,1-1.462.853A1.709,1.709,0,0,1,.219,13.143Zm33.761.251a2.487,2.487,0,0,1-.52-1.91V2.192A2.649,2.649,0,0,1,33.673.853,1.712,1.712,0,0,1,35.155,0a1.686,1.686,0,0,1,1.459.846,2.436,2.436,0,0,1,.216,1.346v8.716H39.5a2.2,2.2,0,0,1,1.206.2,1.538,1.538,0,0,1,0,2.661,2.175,2.175,0,0,1-1.206.2H35.91c-.077,0-.159.006-.239.006A2.217,2.217,0,0,1,33.98,13.394Z" transform="translate(43 33)"></path><g class="logo-symbols" transform="translate(129.996 32)"><path d="M2.262,13.351a2.282,2.282,0,0,1-1.97-1.122A3.246,3.246,0,0,1,0,10.427v-7.5A3.532,3.532,0,0,1,.284,1.138,2.286,2.286,0,0,1,2.262,0,2.25,2.25,0,0,1,4.208,1.129a3.247,3.247,0,0,1,.288,1.8v7.5a3.534,3.534,0,0,1-.284,1.786A2.292,2.292,0,0,1,2.262,13.351Z" transform="translate(15.132 13.351) rotate(180)"></path><path d="M4.837,9.675A4.838,4.838,0,1,1,9.675,4.838,4.843,4.843,0,0,1,4.837,9.675Zm0-7.469A2.632,2.632,0,1,0,7.469,4.838,2.635,2.635,0,0,0,4.837,2.206Z" transform="translate(26.667 16.57) rotate(180)"></path><path d="M2.455,4.91A2.455,2.455,0,1,1,4.91,2.455,2.458,2.458,0,0,1,2.455,4.91Zm0-3.791A1.336,1.336,0,1,0,3.791,2.455,1.337,1.337,0,0,0,2.455,1.119Z" transform="translate(4.91 14.187) rotate(180)"></path><ellipse cx="3.114" cy="3.114" rx="3.114" ry="3.114" transform="translate(8.683 8.735) rotate(180)"></ellipse><ellipse cx="2.013" cy="2.013" rx="2.013" ry="2.013" transform="translate(20.923 5.659) rotate(180)"></ellipse></g></g></svg>